<?xml version="1.0" encoding="UTF-8"?>
<svg id="Layer_2" data-name="Layer 2" xmlns="http://www.w3.org/2000/svg" xmlns:xlink="http://www.w3.org/1999/xlink" viewBox="0 0 560.39 216.98">
  <defs>
    <style>
      .cls-1 {
        fill: url(#linear-gradient);
      }

      .cls-2 {
        fill: #2e9449;
      }

      .cls-3 {
        fill: url(#linear-gradient-3);
      }

      .cls-4 {
        fill: url(#linear-gradient-4);
      }

      .cls-5 {
        fill: url(#linear-gradient-2);
      }

      .cls-6 {
        fill: url(#linear-gradient-5);
      }

      .cls-7 {
        fill: #1d602d;
        opacity: .55;
      }
    </style>
    <linearGradient id="linear-gradient" x1="29.76" y1="100.86" x2="69.54" y2="213.87" gradientUnits="userSpaceOnUse">
      <stop offset="0" stop-color="#378049"/>
      <stop offset="1" stop-color="#37b93c"/>
    </linearGradient>
    <linearGradient id="linear-gradient-2" x1="99.94" y1="222.29" x2="181.13" y2="107.84" gradientUnits="userSpaceOnUse">
      <stop offset="0" stop-color="#73cc35"/>
      <stop offset="1" stop-color="#47b471"/>
    </linearGradient>
    <linearGradient id="linear-gradient-3" x1="33.36" y1="51.8" x2="33.36" y2="82.21" gradientUnits="userSpaceOnUse">
      <stop offset="0" stop-color="#54b435"/>
      <stop offset="1" stop-color="#37924e"/>
    </linearGradient>
    <linearGradient id="linear-gradient-4" x1="152.41" y1="53.87" x2="152.41" y2="86.89" xlink:href="#linear-gradient-3"/>
    <linearGradient id="linear-gradient-5" x1="87.37" y1="37.73" x2="88.57" y2="90.21" xlink:href="#linear-gradient-3"/>
  </defs>
  <g id="Layer_1-2" data-name="Layer 1">
    <g>
      <g>
    </g>
      <path class="cls-1" d="M86.33,139.5c-.16-.26-.33-.52-.52-.78-2.46-3.59-5.17-7-8.15-10.16-1.54-1.65-3.15-3.25-4.82-4.78-3.59-3.28-7.46-6.26-11.58-8.88v-.12c-4.1-2.62-8.43-4.9-12.98-6.78v.11c-10.03-4.2-21.04-6.51-32.57-6.51h-.32c-4.44,.02-8.81,.38-13.07,1.06h-.01l-.21,.04c-.01,.05,0,0-.02,.1-.94,4.38-1.57,8.88-1.87,13.46h-.01v.1c-.13,1.98-.19,3.98-.19,6,0,7.05,.78,13.92,2.26,20.52,3.29,14.76,10.07,28.22,19.42,39.48,11.1,13.37,25.84,23.64,42.69,29.25,4.65,1.55,9.45,2.75,14.39,3.56-.22-.7-.42-1.41-.62-2.12-.41-1.45-.79-2.9-1.14-4.37-.22-.92-.41-1.84-.61-2.77-.31-1.52-.58-3.05-.82-4.6-.76-4.91-1.16-9.94-1.16-15.06,0-11.27,1.91-22.09,5.44-32.17,.02,.03,.03,.08,.05,.11,1.62-4.67,3.6-9.17,5.89-13.48,.19-.38,.39-.75,.58-1.11-.02-.03-.04-.06-.06-.1Z"/>
      <path class="cls-5" d="M187.9,116.28c-.29-4.62-.93-9.15-1.87-13.56-.02-.01-.04-.02-.08-.01-4.29-.7-8.69-1.08-13.17-1.09-.12-.01-.24-.01-.36-.01h-.08c-10.82,0-21.18,2.03-30.71,5.75v-.1c-4.52,1.75-8.87,3.89-12.98,6.38v.1c-4.7,2.84-9.1,6.12-13.16,9.8v-.14c-4.88,4.39-9.23,9.34-12.98,14.75v.18c-.3,.42-.59,.85-.88,1.29-.01-.03-.03-.07-.05-.1-2.95,4.42-5.49,9.14-7.57,14.09,.01,.04,.03,.09,.05,.14-.03,.04-.04,.09-.05,.13-.02-.04-.03-.09-.06-.13-3.85,9.19-6.12,19.2-6.48,29.69,.01,.13,.01,.26,.01,.4-.01,0-.02,0-.03-.01-.03,.87-.04,1.73-.04,2.61,0,1.01,.02,2.01,.06,3.01,.08,2.6,.28,5.17,.61,7.7,.26,2.08,.61,4.13,1.02,6.15,.91,4.51,2.17,8.89,3.77,13.12h.11c.35,.01,.7,.01,1.05,.01s.68,0,1.02-.01h.11c3.9-.04,7.74-.32,11.5-.84,.88-.11,1.75-.24,2.62-.39,6.39-1.05,12.57-2.74,18.46-5.02l33.06,6.82,7.68-37.22c8.51-10.99,14.63-23.91,17.58-37.96,1.33-6.27,2.02-12.77,2.02-19.43,0-2.04-.06-4.08-.19-6.09Z"/>
      <g>
        <path class="cls-3" d="M55.13,47.94c-4.4-1.91-9.26-2.96-14.36-2.96-17.41,0-31.98,12.27-35.54,28.62-.76,3.48,1.97,6.76,5.53,6.76h.11c2.61,0,4.92-1.77,5.48-4.32,2.44-11.23,12.46-19.67,24.42-19.67,1.72,0,3.4,.18,5.02,.51,2.64,.54,5.13,1.51,7.4,2.81,2.02,1.16,4.58,.87,6.34-.66,.03-.03,.06-.05,.09-.08,2.93-2.55,2.58-7.23-.79-9.16-1.19-.68-2.43-1.3-3.7-1.85Z"/>
        <path class="cls-4" d="M148.43,44.98c-8.1,0-15.59,2.66-21.65,7.16-1.61,1.19-3.11,2.51-4.49,3.95-2.04,2.11-2.12,5.4-.21,7.64,.03,.03,.05,.06,.08,.09,2.12,2.5,5.97,2.62,8.24,.26,1.15-1.2,2.43-2.28,3.8-3.23,4.04-2.82,8.95-4.48,14.23-4.48,11.97,0,21.99,8.44,24.43,19.67,.55,2.54,2.87,4.32,5.47,4.32h.12c3.56,0,6.28-3.28,5.53-6.76-3.55-16.35-18.14-28.62-35.55-28.62Z"/>
        <path class="cls-6" d="M142.69,80.43c-1.56-7.11-4.48-13.7-8.49-19.51-2.18-3.15-4.66-6.07-7.41-8.71-9.97-9.5-23.47-15.36-38.3-15.36-12.5,0-24.07,4.16-33.35,11.16-3.44,2.61-6.59,5.61-9.34,8.93-5.57,6.68-9.59,14.7-11.51,23.48-.4,1.8-.71,3.63-.92,5.49-.39,3.41,2.22,6.41,5.65,6.41h0c2.93,0,5.33-2.23,5.66-5.13,.27-2.32,.72-4.58,1.34-6.77,1.96-7,5.62-13.29,10.48-18.41,2.66-2.8,5.67-5.25,8.97-7.28,6.71-4.12,14.59-6.5,23.03-6.5,11.74,0,22.41,4.61,30.33,12.12,2.91,2.75,5.45,5.91,7.54,9.38,1.97,3.3,3.54,6.9,4.61,10.69,.62,2.19,1.07,4.45,1.34,6.77,.34,2.91,2.74,5.13,5.66,5.13h0c3.43,0,6.05-3.01,5.65-6.41-.22-1.86-.52-3.69-.92-5.49Z"/>
        <circle class="cls-2" cx="89.04" cy="18.41" r="18.41"/>
        <circle class="cls-2" cx="35.36" cy="31.37" r="13.89"/>
        <circle class="cls-2" cx="148.48" cy="31.37" r="13.89"/>
        <path class="cls-7" d="M45.85,56.89c2.73-3.3,5.86-6.28,9.28-8.87,.02-.02,.04-.03,.07-.05-.02,0-.04-.02-.07-.03-1.12-.49-2.27-.92-3.45-1.29-2.37,3.15-4.39,6.57-6.05,10.2,.05,.01,.11,.01,.16,.02,.02,0,.04,0,.06,.01Z"/>
        <path class="cls-7" d="M126.79,52.15s-.03,.03-.05,.04c.01,.01,.03,.03,.05,.04,2.74,2.62,5.21,5.52,7.38,8.66,.01,0,.02-.02,.04-.03,.13-.09,.28-.18,.41-.27-1.47-3.55-3.3-6.92-5.45-10.06-.81,.51-1.61,1.05-2.38,1.62Z"/>
      </g>
    </g>
  </g>
</svg>